<?xml version="1.0" encoding="utf-8"?><svg version="1.1" xmlns="http://www.w3.org/2000/svg" width="50px" height="29px" viewBox="0 0 50 29"><path opacity="0.1" fill="#FFFFFF" d="M32.8,0l-7.3,12.6V0h-1v12.6L17.2,0H0v29h17.2l7.3-12.6V29h1V16.4L32.8,29H50V0H32.8zM16.4,0.5l7.3,12.6L1.9,0.5H16.4zM23.1,14L8.6,14L1.4,1.4L23.1,14zM0.5,1.9l7.3,12.6L0.5,27.1V1.9zM8.6,15h14.5L1.4,27.6L8.6,15zM16.4,28.5H1.9l21.8-12.6L16.4,28.5zM33.6,0.5h14.5L26.4,13.1L33.6,0.5zM48.6,1.4L41.4,14l-14.5,0L48.6,1.4zM33.6,28.5l-7.3-12.6l21.8,12.6L33.6,28.5zM26.9,15h14.5l7.3,12.6L26.9,15zM42.2,14.5l7.3-12.6v25.3L42.2,14.5z"/></svg>