<svg class="defs" version="1.1" xmlns="http://www.w3.org/2000/svg" xmlns:xlink="http://www.w3.org/1999/xlink" width="200" height="200" >

<defs>
<symbol id="home" viewBox="0 0 200 200"><path d="M200,109.3L100,31.7L0,109.3V77.6L100,0l100,77.6V109.3zM175,106.5V200h-50v-61.3H75V200H25v-93.5l75-56.3L175,106.5z"/></symbol>
<symbol id="buki" viewBox="0 0 200 200"><path d="M111.8,150.2l48.4,48.4c1.9,1.9,5.1,1.9,7,0l21.8-21.8c1.9-1.9,1.9-5.1,0-7.1l-48.4-48.4l17-17l-5-5l-17.6,17.6L18.3,0c-3.2,0-8.8,5.6-8.8,8.8c0,0,1,33.5,1,36c0,2.5,2.5,5.9,3.9,7.3l92.7,92.7l-17.3,17.3l5,5L111.8,150.2zM19.1,16.6c9,9,4.2,13.9,13.2,22.9c9,9,13.9,4.2,22.9,13.2c9,9,4.2,13.9,13.2,22.9c9,9,13.9,4.2,22.9,13.2c9,9,4.2,13.9,13.2,22.9c8.9,8.9,13.8,4.3,22.6,12.9l-15.9,15.9L19.1,48.4V16.6zM139.4,171.6l5.2-17.5l-17.5,5.2l5.2-17.5l17.5-5.2l-5.2,17.5l17.5-5.2l-5.2,17.5l17.5-5.2l-5.2,17.5l-17.5,5.2l5.2-17.5L139.4,171.6z"/></symbol>
<symbol id="bogu" viewBox="0 0 200 200"><path d="M45.1,98.2l-24.9-9l-6.7,38l38.4,14l6.1-16.7c8,12.1,22.1,27.6,42,27.6c19.9,0,34-15.5,42-27.6l6.1,16.7l38.4-14l-6.7-38l-24.9,9L194,5.8c0,0-12.9-5.8-19.2-5.8c-16.9,0-38.1,7.8-48,26.8c12.2,7,17.7,25.5,9.6,37.6L100,27.9L63.5,64.3c-6.3-9.8-6-28.1,9.6-37.6C58,4.5,42.1,0,25.2,0C19,0,6,5.8,6,5.8L45.1,98.2zM60.7,26.3c-10.4,12.2-12.6,25.6-6.6,39.8c0.6,1.5,22.6,62.2,45.8,62.2s45.2-60.7,45.8-62.2c6-14.2,3.8-27.6-6.6-39.8c14-15.6,40.6-16.6,42.7-16.1c-40,114.2-56.8,132.4-81.9,132.4c-25.2,0-42-18.3-81.9-132.4C20.1,9.7,46.7,10.6,60.7,26.3zM150.9,149l37-13.5l3.2,18.1l-34,12.4L150.9,149zM12.1,135.5l37,13.5l-6.2,17l-34-12.4L12.1,135.5zM195.8,180.1l-29.6,10.8l-6.2-17l32.6-11.9L195.8,180.1zM40,173.9l-6.2,17L4.2,180.1L7.4,162L40,173.9zM146.9,162.3l13.1,31.2c-9.1,0-13.2-8-22.4-8c-15,0-22.6,14.6-37.6,14.6s-22.6-14.6-37.6-14.6c-9.2,0-13.3,8-22.4,8l13.1-31.2c0,0,29.6,18.2,46.9,18.2C117.3,180.5,146.9,162.3,146.9,162.3z"/></symbol>
<symbol id="irui" viewBox="0 0 200 200"><path d="M150.1,120.3l18.7,68.4c0,0-24.1,11.3-68.9,11.3c-5.2,0-10.2-0.2-14.9-0.4l-3.8-44.5L77.6,199c-4.9-0.4-9.5-1-13.6-1.7l2.9-57.7l-11.5,56.2c-15.9-3.2-24.3-7.1-24.3-7.1l18.7-68.4c13.2,3.9,30.7,7.6,50.1,7.6S137,124.2,150.1,120.3zM44.4,103.4l-43.8-21L44.4,0h29.6L100,35.5L126.1,0h29.6l43.8,82.5l-43.8,21v7.9c-6.4,2.2-14.3,4.5-23.5,6.3V98.2c-4.7,0.9-9.4,1.6-14,2.2c-1.9,8.3-9.3,14.6-18.2,14.6s-16.3-6.2-18.2-14.6c-4.6-0.5-9.3-1.2-14-2.2v19.4c-9.1-1.8-17.1-4.2-23.5-6.4V103.4zM67.8,79.3l27.9-38l-27.9-38V79.3zM67.8,91.3c4.6,0.9,9.2,1.7,13.8,2.2c1.4-8.9,9.1-15.8,18.4-15.8s17,6.8,18.4,15.8c4.6-0.5,9.2-1.3,13.8-2.2V3.2L68,90.6l-0.2-0.1V91.3z"/></symbol>
<symbol id="fuda" viewBox="0 0 200 200"><path d="M56,22l-6.2,1.7V0.2h98.9v161.9h-8.2l-10.7-39.9c5.2,0.3,9.7,3,12.7,6.9v-25c-1.6,1.4-3.7,2.3-6,2.3c-5,0-9.1-4.1-9.1-9.1c0-9.7,10.4-9,11-8.9c-4.2-2.2-10.9-5.2-19.8-7.8l-1.9-7c12.1,3.1,20.8,7.2,25.7,10v-6.6c-4.5-2.6-13.9-7.4-27.7-10.8l-10-37.5c16.8,5.2,31.6,11.8,37.8,14.7V28.3c-8.3-4.8-32.3-17.5-60-22H56V22zM137.4,174.2l-95.5,25.6L0,43.4l95.5-25.6L137.4,174.2zM113,107L91.2,25.4L7.5,47.8l22.4,83.4c11.9-9.5,26-16.7,41.6-20.9C85.5,106.6,99.5,105.6,113,107zM37.9,43.8C23.9,47.6,15.5,62,19.3,76.1c3.8,14.1,18.2,22.4,32.3,18.6C65.7,91,74,76.5,70.2,62.4C66.5,48.4,52,40,37.9,43.8zM154.9,21.1v6.4l37.6,10.1l-19.2,71.7c3.7-25.7,6.8-58.2-0.6-60.2c-4.5-1.2-11.1,8.1-17.8,20.5v98.6h-12.7l2.8,10.3l-14.1,3.8l27.2,7.3L200,33.2L154.9,21.1z"/></symbol>
<symbol id="write" viewBox="0 0 200 200"><path fill-rule="evenodd" clip-rule="evenodd" d="M0,200l84.3-31.5l-52.7-52.7L0,200zM70.2,165.3l-32.1,12.1l-15.5-15.1l12.1-32.5L70.2,165.3zM54.9,128.1L173,10l17,17L72,145.1L54.9,128.1zM200,56L91.4,164.6l-12.7-12.7L196.9,33.8L200,56zM48.1,121.2l-12.7-12.7L144,0l22.2,3.1L48.1,121.2z"/></symbol>
<symbol id="login" viewBox="0 0 200 200"><path d="M137.5,0C103,0,75,28,75,62.5c0,3.9,0.4,7.7,1,11.5L0,150v37.5c0,6.9,5.6,12.5,12.5,12.5H25v-12.5h25v-25h25v-25h25l16.2-16.2c6.6,2.4,13.8,3.7,21.3,3.7C172,125,200,97,200,62.5C200,28,172,0,137.5,0zM156.2,62.5c-10.4,0-18.7-8.4-18.7-18.8c0-10.4,8.4-18.8,18.7-18.8c10.4,0,18.8,8.4,18.8,18.8C175,54.1,166.6,62.5,156.2,62.5z"/></symbol>
<symbol id="my" viewBox="0 0 200 200"><path d="M182.8,145.6l-56.4-13.8l-2-2.5v-11.6c4-4.4,9.7-11.2,12-22.1c0.8-0.4,7.9-6.3,11.3-17.9S142.5,62,142.3,62c0-2.6,2.6-20.1-5.5-35.6S115.1,10,109.2,9.2c-0.6-3.4-2.7-8.5-8-9.2c-5.2,0.6-7.3,5.5-8,8.9c-6.7,0.7-19,2.4-27.3,13.9S58.1,59.4,58.1,62c-2.2,0-9.2,4.2-5.4,15.8S61.3,94.6,64,95.7c2.3,10.8,8,17.7,12,22.1v11.6l-1.9,2.3l-56.9,13.9c-7.7,1.8-8.1,54.4,82.9,54.4C191.2,200,190.2,147.3,182.8,145.6zM69.3,91.2c0,0-4.7-0.5-7.3-5.6s-5.1-13-4.5-15.5s3.9-2.5,3.9-2.5l6.5,7.5c0,0-3.3-19.2,0.1-24.1s6.1-5.3,9-6.6C72,36.1,74.9,22,74.9,22s12.3-7.4,25.3-7.4c13,0,25.3,7.4,25.3,7.4s3,14.1-2.1,22.5c2.6,1.1,6.9,2.8,9.2,8.3s-0.6,22.4-0.6,22.4l6.5-7.5c0,0,1.7-0.9,3.7,1.4s0.4,11.2-3,16.7s-8,5.5-8,5.5c0,14.5-12.8,24.2-12.8,24.2s0,10.7,0,13.9c0,3.5,2.6,5.7,2.6,5.7l-21.5,22l-20.8-21.3c2.1-1.1,3.4-4.3,3.4-6.4c0-3.2,0-13.9,0-13.9S69.3,105.3,69.3,91.2zM68.9,141.7l6.4-3.5L96.6,160l-6.4,6.4l-20.7-21.2L68.9,141.7zM70.7,152.5l16.5,16.9l-11.6,11.6L70.7,152.5zM125.6,192.6l-38.7,0.9l43.6-43.6L125.6,192.6zM131.2,143.3l-49.9,49.9l-3.7-0.3l-1.2-6.9l47.7-48.3l7.2,4L131.2,143.3z"/></symbol>
<symbol id="menu" viewBox="0 0 200 200"><path d="M24.1,171.2l14.4-16.6h9.7v44.9H37.1v-28L25,185.5h-1.7l-12.1-14.1v28H0v-44.9h9.7L24.1,171.2zM91.4,191.2v8.2H58.3v-44.9H91v8.2H69.5v9.4H90v8.2H69.5v10.8H91.4zM145.4,154.5v44.9H136l-24.8-28.8v28.8H100v-44.9h10.3l24,27.4v-27.4H145.4zM188.8,154.5H200V180c0,6.6-1.9,11.5-5.8,14.9c-3.9,3.4-9.4,5.1-16.6,5.1c-7.1,0-12.6-1.7-16.6-5.1c-3.9-3.4-5.9-8.4-5.9-14.8v-25.5h11.2v25.8c0,3.1,1,5.6,3.1,7.5c2,1.9,4.7,2.8,8,2.8c3.4,0,6.2-1,8.3-2.9c2.1-1.9,3.1-4.7,3.1-8.2V154.5zM200,0H0v36.9h200V0zM200,49.2H0V86h200V49.2zM200,98.3H0v36.9h200V98.3z"/></symbol>
<symbol id="search" viewBox="0 0 200 200"><path d="M193.8,170.2l-47.4-40.3c-4.9-4.4-10.1-6.4-14.4-6.2C143.2,110.6,150,93.6,150,75c0-41.4-33.6-75-75-75C33.6,0,0,33.6,0,75c0,41.4,33.6,75,75,75c18.6,0,35.6-6.8,48.7-17.9c-0.2,4.2,1.8,9.5,6.2,14.4l40.3,47.4c6.9,7.7,18.2,8.3,25,1.4C202.1,188.4,201.5,177.1,193.8,170.2zM75,125c-27.6,0-50-22.4-50-50c0-27.6,22.4-50,50-50c27.6,0,50,22.4,50,50C125,102.6,102.6,125,75,125z"/></symbol>
<symbol id="make" viewBox="0 0 200 200"><path d="M152.1,48.3c-8.6-1.7-17.3-3.5-20.7-4.6C119.6,39.8,97.3,13.3,89.3,12c-10.2-1.7-21.4,16.2-10.4,27.1C71.7,40.9,47.5,51,39,69.2c-8.4,18-7.2,31-7.2,31.4l-11.5,24.3v0c-2.1,4-1.1,9.9,4.3,12.3l9.5,4.7v15.1c0,4.7,2,9.3,9.3,9.3h25v17.9c0,7.8,5.6,11.6,12.9,8.5l47.7-20.2v0c2.6-1.2,5.6-3.8,5.6-8.5v-18.4c6.2-5.4,11.2-12.1,14.8-19.6c3.9-8.1,6.1-17.2,6.1-26.8c0-11.5-3.2-22.3-8.7-31.6c4.8-0.5,9.3-2.8,10.9-6.1C160.4,56.5,156.4,49.2,152.1,48.3zM125.6,129.5c-6.4,2.8-2.6,12.4,0.4,18.1l0,16.7L77.1,185v-18.1c0-8.2-5.2-9.3-9.3-9.3h-25v-15.5c0-4.8-3.6-7.6-5.2-8.3h0l-9.7-4.7l12.7-26.8c0,0-0.5-17.1,9-32.9s34-22.8,39.7-23.3c4.8,2.6,10.4,5.2,16.3,7.7c8.3,14.1,6.4,33.4-5.8,37.6l8.6,32.8c0,0,11.5-19.6,19-17.9C134.8,108.2,134.8,125.5,125.6,129.5zM40,25.1C35.2,19.3,32,9.2,30.3,0c-1.6,9.2-4.9,19.3-9.7,25.1C15.9,30.8,7.6,34.8,0,36.8c7.6,2,15.9,5.9,20.7,11.7c4.8,5.8,8,15.9,9.7,25.1c1.6-9.2,4.9-19.3,9.7-25.1c4.8-5.8,13.1-9.7,20.7-11.7C53.1,34.8,44.8,30.8,40,25.1zM180.8,154.8c-4.4-5.4-7.5-14.8-9-23.3c-1.5,8.6-4.5,18-9,23.4c-4.4,5.4-12.2,9.1-19.2,10.9c7.1,1.8,14.8,5.5,19.2,10.9c4.4,5.4,7.5,14.8,9,23.3c1.5-8.6,4.5-18,9-23.4c4.4-5.4,12.2-9.1,19.2-10.9C193,163.9,185.2,160.2,180.8,154.8zM177.4,49.1c-1,6.1-3,12.8-5.9,16.6c-2.9,3.8-8,6.5-12.7,7.8c4.7,1.3,9.8,3.9,12.7,7.8c2.9,3.8,4.9,10.5,5.9,16.6c1-6.1,3-12.8,5.9-16.6c2.9-3.8,8-6.5,12.7-7.8c-4.7-1.3-9.8-3.9-12.7-7.8C180.4,61.9,178.4,55.2,177.4,49.1z"/></symbol>
<symbol id="arrow" viewBox="0 0 200 200"><path d="M149.5,100l-99,100v-36.9l62.4-63.1L50.5,36.9V0L149.5,100z"/></symbol>
<symbol id="up" viewBox="0 0 200 200"><path d="M100,50.5l100,99h-36.9L100,87.1l-63.1,62.4H0L100,50.5z"/></symbol>
<symbol id="asc" viewBox="0 0 200 200"><path d="M0,183.3L100,16.7l100,166.7H0z"/></symbol>
<symbol id="desc" viewBox="0 0 200 200"><path d="M200,16.7L100,183.3L0,16.7H200z"/></symbol>
<symbol id="tag" viewBox="0 0 200 200"><path d="M200,0h-83L0,117l83,83L200,83L200,0zM83,182.8L17.2,117L122,12.2h65.8V78L83,182.8zM157.3,72.1c-8.1,8.1-21.3,8.1-29.4,0c-8.1-8.1-8.1-21.3,0-29.4c8.1-8.1,21.3-8.1,29.4,0C165.4,50.9,165.4,64,157.3,72.1z"/></symbol>
<symbol id="link" viewBox="0 0 200 200"><path d="M78.3,129.5c-19-19-19-50,0-69l38.4-38.4c9.2-9.2,21.5-14.3,34.5-14.3s25.3,5.1,34.5,14.3c19,19,19,50,0,69l-17.6,17.5l-14.7-14.7L171,76.4c10.9-10.9,10.9-28.7,0-39.6c-5.3-5.3-12.3-8.2-19.8-8.2c-7.5,0-14.5,2.9-19.8,8.2L93,75.2c-10.9,10.9-10.9,28.7,0,39.6L78.3,129.5zM83.3,177.9l38.4-38.4c19-19,19-50,0-69L107,85.2c10.9,10.9,10.9,28.7,0,39.6l-38.4,38.4c-5.3,5.3-12.3,8.2-19.8,8.2c-7.5,0-14.5-2.9-19.8-8.2c-10.9-10.9-10.9-28.7,0-39.6l17.6-17.6L31.8,91.3l-17.6,17.6c-19,19-19,50,0,69c9.2,9.2,21.5,14.3,34.5,14.3S74.1,187.1,83.3,177.9z"/></symbol>
<symbol id="link2" viewBox="0 0 200 200"><path d="M50,125c0,0,11.5-37.5,75-37.5V125l75-50l-75-50v37.5C75,62.5,50,93.7,50,125zM137.5,150H25V75h24.6c2-2.3,4.1-4.6,6.3-6.7c8.6-8,18.9-14.2,30.5-18.3H0v125h162.5v-52.5l-25,16.7L137.5,150L137.5,150z"/></symbol>
<symbol id="quo1" viewBox="0 0 200 200"><path d="M43.9,81.3c24.1,0,43.7,19.6,43.7,43.7S68,168.7,43.9,168.7c-24.1,0-43.7-19.6-43.7-43.7L0,118.7c0-48.3,39.1-87.4,87.4-87.4v25c-16.7,0-32.4,6.5-44.1,18.3c-2.3,2.3-4.3,4.7-6.2,7.2C39.3,81.5,41.6,81.3,43.9,81.3zM156.3,81.3c24.1,0,43.7,19.6,43.7,43.7s-19.6,43.7-43.7,43.7c-24.1,0-43.7-19.6-43.7-43.7l-0.2-6.2c0-48.3,39.1-87.4,87.4-87.4v25c-16.7,0-32.4,6.5-44.1,18.3c-2.3,2.3-4.3,4.7-6.2,7.2C151.7,81.5,154,81.3,156.3,81.3L156.3,81.3z"/></symbol>
<symbol id="quo2" viewBox="0 0 200 200"><path d="M156.1,118.7c-24.1,0-43.7-19.6-43.7-43.7s19.6-43.7,43.7-43.7s43.7,19.6,43.7,43.7l0.2,6.2c0,48.3-39.1,87.4-87.4,87.4v-25c16.7,0,32.4-6.5,44.1-18.3c2.3-2.3,4.3-4.7,6.2-7.2C160.7,118.5,158.4,118.7,156.1,118.7zM43.7,118.7C19.6,118.7,0,99.2,0,75s19.6-43.7,43.7-43.7S87.4,50.9,87.4,75l0.2,6.2c0,48.3-39.1,87.4-87.4,87.4v-25c16.7,0,32.4-6.5,44.1-18.3c2.3-2.3,4.3-4.7,6.2-7.2C48.3,118.5,46,118.7,43.7,118.7z"/></symbol>
</defs>
</svg>
